<svg xmlns="http://www.w3.org/2000/svg" width="180" height="180" preserveAspectRatio="xMidYMid meet" version="1.0" viewBox="0 0 135 135"><metadata>Created by potrace 1.14, written by Peter Selinger 2001-2017</metadata><g fill="#000" stroke="none"><path d="M0 1130 l0 -90 45 0 45 0 0 -270 0 -270 45 0 45 0 0 -45 0 -45 45 0 45 0 0 -45 0 -45 45 0 45 0 0 -45 0 -45 45 0 45 0 0 -45 0 -45 225 0 225 0 0 45 0 45 45 0 45 0 0 45 0 45 45 0 45 0 0 45 0 45 45 0 45 0 0 45 0 45 45 0 45 0 0 270 0 270 45 0 45 0 0 90 0 90 -135 0 -135 0 0 -45 0 -45 -45 0 -45 0 0 -45 0 -45 -90 0 -90 0 0 45 0 45 -180 0 -180 0 0 -45 0 -45 -45 0 -45 0 0 45 0 45 -45 0 -45 0 0 45 0 45 -135 0 -135 0 0 -90z m481 -107 c13 -16 12 -17 -3 -4 -10 7 -18 15 -18 17 0 8 8 3 21 -13z m54 -13 c3 -6 -1 -7 -9 -4 -18 7 -21 14 -7 14 6 0 13 -4 16 -10z m0 -40 c-3 -5 -12 -10 -18 -10 -7 0 -6 4 3 10 19 12 23 12 15 0z m-201 -478 c3 -5 -1 -9 -9 -9 -8 0 -12 4 -9 9 3 4 7 8 9 8 2 0 6 -4 9 -8z m-39 -22 c-3 -5 -12 -10 -18 -10 -7 0 -6 4 3 10 19 12 23 12 15 0z m32 -35 c0 -8 -4 -12 -9 -9 -5 3 -6 10 -3 15 9 13 12 11 12 -6z" transform="translate(0.000000,135.000000) scale(0.100000,-0.100000)"/></g></svg>